<svg xmlns="http://www.w3.org/2000/svg" viewBox="6 12 68 72" fill="none" aria-hidden="true">
  <path d="m69 60.9759v-2.3291-3.2165-15.1396-3.2165l2.4783-5.1575 12.3913-9.8158c1.6521-1.3864 4.1304-.2218 4.1304 1.941v46.9162c0 2.1628-2.5333 3.3274-4.1855 1.941z" fill="#00ac47"/>
  <path d="m28 15-20 20h20z" fill="#ea4335"/>
  <path d="m28 35h-20v26h20z" fill="#2684fc"/>
  <path d="m8 61v13.3333c0 3.6667 3 6.6667 6.6667 6.6667h13.3333v-20z" fill="#0066da"/>
  <path d="m71.5 21.5902c0-3.6246-2.9362-6.5902-6.525-6.5902h-13.05-23.925v20h24.5v13l19-.5984z" fill="#ffba00"/>
  <path d="m52.5 61h-24.5v20h23.925 13.05c3.5888 0 6.525-2.9613 6.525-6.5806v-26.4194h-19z" fill="#00ac47"/>
  <path d="m71.5 32v31l-19-15z" fill="#00832d"/>
</svg>
